PathFileType	4	(X/Y/Z)	C:\Users\WrightLab\Desktop\Jo\P2_Trial20.trc
DataRate	CameraRate	NumFrames	NumMarkers	Units	OrigDataRate	OrigDataStartFrame	OrigNumFrames
100.00	100.00	       20	19	mm	100.00	99	       787
Frame#	Time	Headset_Front			Headset_Back			Headset_Left			Headset_Right			Left_Shoulder			Right_Shoulder			Sternum			C7			Left Elbow			Right Elbow			Left Wrist			Right Wrist			Left ASIS			Right ASIS			S2			Left Knee			Right Knee			Left Ankle			Right Ankle			
		X1	Y1	Z1	X2	Y2	Z2	X3	Y3	Z3	X4	Y4	Z4	X5	Y5	Z5	X6	Y6	Z6	X7	Y7	Z7	X8	Y8	Z8	X9	Y9	Z9	X10	Y10	Z10	X11	Y11	Z11	X12	Y12	Z12	X13	Y13	Z13	X14	Y14	Z14	X15	Y15	Z15	X16	Y16	Z16	X17	Y17	Z17	X18	Y18	Z18	X19	Y19	Z19	

99	0.980	72.26313	1710.50854	1653.79590	-78.33870	1459.67273	1673.57043	-65.82784	1607.54944	1644.46460													70.98540	1494.29834	1812.79651				345.63379	1225.27466	1874.07410										167.76732	1047.22913	1719.74536	41.49376	1010.82751	1958.17798	-84.36082	504.51236	1685.81543	253.69652	590.56580	1830.32898	-120.79205	175.19006	1819.51660	250.39862	162.77936	1744.22571	
100	0.990	74.16697	1710.21594	1648.68982	-77.31037	1459.38647	1671.18726	-65.21454	1607.82190	1642.90686													72.25734	1495.13403	1809.96313				347.41919	1225.81140	1870.37634										169.87889	1046.79248	1717.42615	43.85577	1012.42639	1956.18518	-80.66714	503.54361	1686.48181	252.67841	590.71942	1830.81140	-112.53508	167.81221	1808.69885	250.51849	163.70866	1744.40625	
101	1.000	75.11353	1710.10876	1644.28430	-76.20478	1459.41736	1666.92847	-63.73729	1608.08325	1638.54663							245.11525	1487.26038	1713.63733				74.06278	1495.67554	1805.96228				348.86029	1226.25818	1866.62634										170.87996	1046.41724	1713.57605	46.05600	1012.93311	1953.34497	-76.25070	503.44357	1684.07678	251.81232	590.91473	1831.35791	-103.35033	162.44182	1795.17786	250.76003	164.30519	1743.56946	
102	1.010	76.52047	1709.56519	1639.12732	-75.62828	1458.89563	1662.77930	-63.23997	1608.35828	1635.67151							246.36896	1487.93164	1709.85815				75.34130	1495.34912	1801.58875	-223.97414	1154.29797	1594.67175	350.17523	1226.38562	1861.98303										173.33041	1047.20300	1710.17627	47.87586	1013.92737	1951.27112	-72.53779	502.95874	1685.61328	250.99867	591.44769	1832.46863	-93.98949	155.87669	1782.28064	250.41101	165.12831	1743.06653	
103	1.020	77.67797	1709.53442	1635.43823	-75.05185	1458.22095	1659.58777	-62.07090	1608.36621	1630.47437													76.21999	1495.90430	1796.71484	-223.77414	1154.12317	1592.17444	350.39706	1227.03540	1859.23218										174.96420	1046.69519	1709.01672	50.41851	1014.73419	1948.88232	-67.79309	502.89548	1685.02185	249.59917	592.33832	1832.11743	-85.31447	149.64197	1766.76624	249.74223	165.97704	1742.80115	
104	1.030	79.08137	1709.31604	1631.49280	-73.74068	1458.10779	1655.75537	-61.74151	1608.76257	1627.80713													77.16219	1496.24622	1792.65515	-223.52817	1153.64075	1589.55457	351.28937	1227.98340	1855.55896										176.83041	1046.15906	1707.03967	52.06812	1015.75391	1947.57178	-64.63068	501.82468	1686.60217	248.86621	593.04413	1832.24023	-75.94122	145.64700	1752.62732	249.21275	166.50224	1742.44263	
105	1.040	79.71976	1708.71289	1626.66931	-73.40582	1457.85999	1653.01794	-61.34475	1608.95801	1625.48315							248.66776	1488.00842	1696.15112				78.01932	1496.32104	1789.36450	-223.42564	1153.03198	1587.48865	351.31946	1228.35498	1852.07825										178.74002	1046.76062	1704.38989	54.09534	1017.04846	1946.09570	-60.99310	501.53107	1688.50732	247.79633	593.36292	1831.87390	-69.36950	143.40999	1737.28906	248.55841	166.79959	1741.80701	
106	1.050	80.32769	1707.77637	1622.08276	-72.94231	1456.79956	1648.28796	-60.78254	1608.57324	1620.45679							249.16293	1488.91577	1692.40735				77.89046	1496.99402	1785.14563	-223.48267	1152.29651	1585.78613	351.60242	1228.67371	1848.42834										180.18291	1047.05981	1702.40125	55.83691	1017.45172	1944.02222	-57.89169	501.65387	1690.75708	247.49373	593.78699	1831.44055	-63.51392	145.07043	1723.04004	247.75540	167.75742	1740.92505	
107	1.060	80.75261	1707.56409	1618.89331				-60.64932	1607.85071	1615.76404													78.53276	1496.89966	1780.75452	-223.67284	1151.56262	1583.28601	351.24969	1229.89209	1845.94263										182.40649	1047.77710	1699.31360	57.20336	1018.03564	1942.08862	-54.39328	501.01929	1692.33118	247.41179	594.02313	1831.15906	-58.07824	143.07550	1706.08545	246.72771	167.09189	1740.83411	
108	1.070	81.22457	1706.66602	1613.57068				-60.60263	1607.85486	1613.17676													79.18197	1496.88770	1777.07556	-223.89738	1150.65161	1580.06409	350.28357	1230.31921	1843.48730	-288.38416	984.55792	1460.94714							183.66052	1047.00610	1697.18494	58.78265	1018.94421	1940.03845	-50.96276	501.22635	1694.71472	247.26274	594.20172	1829.78027	-52.25986	143.41803	1689.12830	247.35396	168.32201	1741.10510	
109	1.080	80.97922	1705.53625	1609.98450				-61.23768	1607.38013	1609.12561							249.72145	1487.87805	1678.36743	109.36620	1342.37122	1629.44312	78.91986	1496.59607	1771.91931	-224.12119	1149.47485	1577.83569	349.65634	1231.75464	1840.57263	-289.34164	983.91107	1458.94189				57.23798	1060.83020	1668.84387	185.15166	1047.54871	1695.10938	60.23683	1019.45264	1937.51904	-47.47942	500.74405	1697.17944	247.64250	594.35437	1829.34387	-45.43068	142.53094	1672.17786	247.10542	168.11029	1741.48120	
110	1.090	81.29839	1704.77136	1605.36951				-61.68081	1607.19714	1605.62671							249.59639	1489.32214	1675.49158	109.82839	1341.65466	1625.63867	78.35809	1497.27063	1769.79871	-224.35403	1148.44177	1575.97900	349.24759	1232.30542	1838.23230	-290.33862	982.69879	1456.91235				58.79443	1061.10425	1666.80078	186.95401	1048.14294	1691.60339	60.73131	1019.88910	1935.88562	-44.47378	500.94296	1698.61633	249.06677	594.35632	1828.41870	-40.97652	145.32462	1658.16833	246.78560	167.85896	1741.72058	
111	1.100	80.61299	1703.72375	1600.82239				-61.68497	1606.18640	1601.69128				-72.12635	1452.03906	1631.00916				110.15531	1340.61523	1622.35852	78.02256	1497.14807	1765.04456	-224.82309	1147.12512	1572.85693	348.81339	1232.81665	1834.94336	-291.17941	981.38745	1454.87524				59.97628	1061.20544	1665.25647	188.02097	1047.51733	1690.71948	61.92709	1020.07825	1932.99609	-40.84839	501.07974	1698.12000	250.39876	594.90851	1827.63318	-35.92334	148.12924	1644.83325	246.64670	167.38083	1742.10889	
112	1.110	80.28020	1703.12781	1597.07996				-62.32851	1605.07129	1597.07178				-72.82865	1450.24646	1626.84546				110.52560	1340.23206	1619.46912	77.68237	1496.88147	1761.59143	-225.10815	1145.92578	1569.37085	348.19836	1233.29199	1832.72107	-292.56091	980.25079	1452.78113				60.65374	1060.96326	1662.91602	188.73738	1047.53906	1689.74377	62.57245	1020.16486	1930.67908	-37.79016	500.23965	1699.64661	253.19098	595.60474	1826.02954	-30.78768	151.62511	1633.75781	246.72260	167.25977	1742.10266	
113	1.120	79.32398	1701.95703	1592.58020				-62.93277	1604.32178	1594.69702				-73.24454	1448.79102	1623.80225				110.84123	1339.58044	1616.27246	76.96789	1496.43066	1757.49463	-225.52846	1144.61682	1567.30640	347.40225	1234.79346	1830.90100	-293.54202	978.93555	1450.87439				61.65452	1060.85461	1658.67358	190.14917	1047.89355	1687.79297	63.09355	1020.30573	1928.03430	-34.33286	501.00006	1698.76465	256.36612	595.15240	1825.02148	-26.07310	155.88808	1624.52490	245.63766	166.07599	1742.46509	
114	1.130	78.77406	1700.86865	1588.39685				-63.95148	1603.01892	1589.83350				-73.77544	1448.18884	1620.55273				110.97501	1338.69714	1613.52563	76.18834	1496.89331	1754.13000	-226.19559	1143.41223	1564.17371	346.74954	1235.42798	1829.65063	-294.46503	977.43292	1448.84070				62.75531	1060.22266	1657.04871	191.23839	1048.33606	1686.27283	63.83149	1020.19812	1925.41638	-31.69141	500.02686	1699.18054	259.50598	595.62488	1822.15588	-21.88699	159.06847	1615.87146	245.63766	166.07599	1742.46509	
115	1.140	77.64882	1699.85571	1584.70996				-64.56194	1602.21289	1587.44836				-74.21049	1446.43799	1615.54712				110.72594	1337.87000	1610.13074	75.16431	1495.78894	1749.75793	-227.04681	1141.92749	1561.03918	346.01273	1236.71155	1827.46460	-295.97989	975.97485	1446.62781				63.30860	1060.45520	1652.13550	191.79845	1048.10779	1684.02722	64.90814	1019.84418	1922.87146	-27.91123	499.14590	1697.98132	263.05542	596.02264	1819.90161	-18.00493	161.21521	1607.77197	245.63766	166.07599	1742.46509	
116	1.150	76.20309	1698.96021	1580.59717				-65.91408	1600.62207	1582.98120				-74.56608	1444.94861	1613.28821				110.42192	1337.39319	1607.28125	73.95782	1495.88062	1747.61633	-227.90410	1140.35400	1559.79944	346.05432	1237.07813	1825.50403	-296.96039	974.32800	1444.83301				64.17828	1059.50586	1652.22571	192.48627	1047.66687	1682.13513	65.29365	1020.35181	1921.45374	-25.10586	497.67572	1697.80054	266.40796	597.02112	1818.42139				244.95004	165.25017	1743.70068	
117	1.160	75.42989	1697.89539	1576.99072				-67.00917	1600.12415	1580.83276				-75.14137	1443.87207	1607.96008				110.07818	1337.14954	1603.91553	72.62103	1494.59546	1742.75964	-228.87567	1138.85645	1557.30237	345.41150	1238.68066	1824.10779	-298.35489	972.74371	1442.79773				64.77830	1058.33484	1648.27039	193.04509	1048.24097	1679.31604	66.24544	1020.62177	1919.54382	-22.64295	497.13431	1695.17920	269.76544	597.95782	1815.29932				244.56941	165.02740	1744.12268	
118	1.170	73.76910	1696.73889	1572.58313				-68.83878	1598.80750	1577.02673				-76.41545	1442.40833	1606.13623				109.81026	1336.67383	1600.85327	70.69914	1495.45178	1741.47705	-229.81514	1137.54224	1554.82153	345.04501	1239.84656	1822.59094	-300.06473	971.24664	1440.93945				65.62997	1058.16711	1647.17639	193.78946	1049.14807	1676.21765	67.14896	1020.43005	1916.86560	-20.04762	495.74847	1695.87390	271.28195	597.21240	1813.38477				244.97603	165.10902	1745.90271	
